<mxfile host="65bd71144e">
    <diagram id="e_EMFUCc4WVAG9ll1iUo" name="Page-1">
        <mxGraphModel dx="1426" dy="1417" grid="1" gridSize="10" guides="1" tooltips="1" connect="1" arrows="1" fold="1" page="1" pageScale="1" pageWidth="850" pageHeight="2200" math="0" shadow="0">
            <root>
                <mxCell id="0"/>
                <mxCell id="1" parent="0"/>
                <mxCell id="2" value="&lt;font style=&quot;font-size: 18px;&quot;&gt;functions.js&lt;/font&gt;" style="font-size=24;rounded=0;whiteSpace=wrap;html=1;" vertex="1" parent="1">
                    <mxGeometry y="40" width="120" height="60" as="geometry"/>
                </mxCell>
                <mxCell id="4" value="&lt;font style=&quot;font-size: 18px;&quot;&gt;adventure.js&lt;/font&gt;" style="rounded=0;whiteSpace=wrap;html=1;" vertex="1" parent="1">
                    <mxGeometry x="320" y="40" width="120" height="60" as="geometry"/>
                </mxCell>
                <mxCell id="ShV8n1ksoIs3ZVw6RkP9-4" value="&lt;font style=&quot;font-size: 18px;&quot;&gt;data.js&lt;/font&gt;" style="rounded=0;whiteSpace=wrap;html=1;" vertex="1" parent="1">
                    <mxGeometry x="600" y="40" width="120" height="60" as="geometry"/>
                </mxCell>
                <mxCell id="ShV8n1ksoIs3ZVw6RkP9-5" value="" style="endArrow=none;html=1;fontSize=18;entryX=0.5;entryY=1;entryDx=0;entryDy=0;" edge="1" parent="1" target="4">
                    <mxGeometry width="50" height="50" relative="1" as="geometry">
                        <mxPoint x="380" y="1720" as="sourcePoint"/>
                        <mxPoint x="450" y="400" as="targetPoint"/>
                    </mxGeometry>
                </mxCell>
                <mxCell id="ShV8n1ksoIs3ZVw6RkP9-6" value="" style="endArrow=none;html=1;fontSize=18;entryX=0.5;entryY=1;entryDx=0;entryDy=0;" edge="1" parent="1">
                    <mxGeometry width="50" height="50" relative="1" as="geometry">
                        <mxPoint x="60" y="1720" as="sourcePoint"/>
                        <mxPoint x="59.52000000000002" y="100" as="targetPoint"/>
                    </mxGeometry>
                </mxCell>
                <mxCell id="ShV8n1ksoIs3ZVw6RkP9-7" value="" style="endArrow=none;html=1;fontSize=18;entryX=0.5;entryY=1;entryDx=0;entryDy=0;" edge="1" parent="1">
                    <mxGeometry width="50" height="50" relative="1" as="geometry">
                        <mxPoint x="659.1700000000001" y="780" as="sourcePoint"/>
                        <mxPoint x="659.1700000000001" y="100" as="targetPoint"/>
                    </mxGeometry>
                </mxCell>
                <mxCell id="ShV8n1ksoIs3ZVw6RkP9-8" value="Require data" style="endArrow=classic;html=1;fontSize=18;" edge="1" parent="1">
                    <mxGeometry width="50" height="50" relative="1" as="geometry">
                        <mxPoint x="380" y="120" as="sourcePoint"/>
                        <mxPoint x="650" y="120" as="targetPoint"/>
                    </mxGeometry>
                </mxCell>
                <mxCell id="ShV8n1ksoIs3ZVw6RkP9-9" value="Import trails, rivers objects" style="endArrow=classic;html=1;fontSize=18;" edge="1" parent="1">
                    <mxGeometry width="50" height="50" relative="1" as="geometry">
                        <mxPoint x="650" y="160" as="sourcePoint"/>
                        <mxPoint x="380" y="160" as="targetPoint"/>
                    </mxGeometry>
                </mxCell>
                <mxCell id="ShV8n1ksoIs3ZVw6RkP9-10" value="Log ascii-art banner&lt;br&gt;Log Trails header" style="shape=callout;whiteSpace=wrap;html=1;perimeter=calloutPerimeter;fontSize=18;position2=0;" vertex="1" parent="1">
                    <mxGeometry x="390" y="180" width="240" height="90" as="geometry"/>
                </mxCell>
                <mxCell id="ShV8n1ksoIs3ZVw6RkP9-15" value="loop" style="swimlane;whiteSpace=wrap;html=1;fontSize=12;" vertex="1" parent="1">
                    <mxGeometry x="25" y="290" width="400" height="100" as="geometry"/>
                </mxCell>
                <mxCell id="ShV8n1ksoIs3ZVw6RkP9-11" value="" style="endArrow=classic;html=1;fontSize=18;startArrow=none;" edge="1" parent="ShV8n1ksoIs3ZVw6RkP9-15">
                    <mxGeometry width="50" height="50" relative="1" as="geometry">
                        <mxPoint x="360" y="49.519999999999996" as="sourcePoint"/>
                        <mxPoint x="40" y="49.519999999999996" as="targetPoint"/>
                        <Array as="points">
                            <mxPoint x="270" y="49.519999999999996"/>
                        </Array>
                    </mxGeometry>
                </mxCell>
                <mxCell id="ShV8n1ksoIs3ZVw6RkP9-12" value="Invoke totalTrailMiles() to get total length of trails&amp;nbsp;" style="edgeLabel;html=1;align=center;verticalAlign=middle;resizable=0;points=[];fontSize=12;" vertex="1" connectable="0" parent="ShV8n1ksoIs3ZVw6RkP9-11">
                    <mxGeometry x="0.0214" y="1" relative="1" as="geometry">
                        <mxPoint x="14" y="-11" as="offset"/>
                    </mxGeometry>
                </mxCell>
                <mxCell id="ShV8n1ksoIs3ZVw6RkP9-18" value="Add length of each trail to total, return trailTotal as int" style="endArrow=classic;html=1;fontSize=12;" edge="1" parent="1">
                    <mxGeometry width="50" height="50" relative="1" as="geometry">
                        <mxPoint x="60" y="370" as="sourcePoint"/>
                        <mxPoint x="380" y="370" as="targetPoint"/>
                    </mxGeometry>
                </mxCell>
                <mxCell id="ShV8n1ksoIs3ZVw6RkP9-19" value="loop" style="swimlane;whiteSpace=wrap;html=1;fontSize=12;" vertex="1" parent="1">
                    <mxGeometry x="25" y="410" width="400" height="100" as="geometry"/>
                </mxCell>
                <mxCell id="ShV8n1ksoIs3ZVw6RkP9-20" value="" style="endArrow=classic;html=1;fontSize=18;startArrow=none;" edge="1" parent="ShV8n1ksoIs3ZVw6RkP9-19">
                    <mxGeometry width="50" height="50" relative="1" as="geometry">
                        <mxPoint x="360" y="49.519999999999996" as="sourcePoint"/>
                        <mxPoint x="40" y="49.519999999999996" as="targetPoint"/>
                        <Array as="points">
                            <mxPoint x="270" y="49.519999999999996"/>
                        </Array>
                    </mxGeometry>
                </mxCell>
                <mxCell id="ShV8n1ksoIs3ZVw6RkP9-21" value="Invoke shortestTrail() to get the length of shortest trail&amp;nbsp;" style="edgeLabel;html=1;align=center;verticalAlign=middle;resizable=0;points=[];fontSize=12;" vertex="1" connectable="0" parent="ShV8n1ksoIs3ZVw6RkP9-20">
                    <mxGeometry x="0.0214" y="1" relative="1" as="geometry">
                        <mxPoint x="14" y="-11" as="offset"/>
                    </mxGeometry>
                </mxCell>
                <mxCell id="ShV8n1ksoIs3ZVw6RkP9-22" value="Compare trail lengths, return the shortest length as int" style="endArrow=classic;html=1;fontSize=12;" edge="1" parent="1">
                    <mxGeometry width="50" height="50" relative="1" as="geometry">
                        <mxPoint x="60" y="490" as="sourcePoint"/>
                        <mxPoint x="380" y="490" as="targetPoint"/>
                    </mxGeometry>
                </mxCell>
                <mxCell id="ShV8n1ksoIs3ZVw6RkP9-23" value="loop" style="swimlane;whiteSpace=wrap;html=1;fontSize=12;" vertex="1" parent="1">
                    <mxGeometry x="25" y="530" width="400" height="100" as="geometry"/>
                </mxCell>
                <mxCell id="ShV8n1ksoIs3ZVw6RkP9-24" value="" style="endArrow=classic;html=1;fontSize=18;startArrow=none;" edge="1" parent="ShV8n1ksoIs3ZVw6RkP9-23">
                    <mxGeometry width="50" height="50" relative="1" as="geometry">
                        <mxPoint x="360" y="49.519999999999996" as="sourcePoint"/>
                        <mxPoint x="40" y="49.519999999999996" as="targetPoint"/>
                        <Array as="points">
                            <mxPoint x="270" y="49.519999999999996"/>
                        </Array>
                    </mxGeometry>
                </mxCell>
                <mxCell id="ShV8n1ksoIs3ZVw6RkP9-25" value="Invoke longestTrail() to get length of longest trail&amp;nbsp;" style="edgeLabel;html=1;align=center;verticalAlign=middle;resizable=0;points=[];fontSize=12;" vertex="1" connectable="0" parent="ShV8n1ksoIs3ZVw6RkP9-24">
                    <mxGeometry x="0.0214" y="1" relative="1" as="geometry">
                        <mxPoint x="14" y="-11" as="offset"/>
                    </mxGeometry>
                </mxCell>
                <mxCell id="ShV8n1ksoIs3ZVw6RkP9-26" value="Compare trail lengths, return longest length as int" style="endArrow=classic;html=1;fontSize=12;" edge="1" parent="1">
                    <mxGeometry width="50" height="50" relative="1" as="geometry">
                        <mxPoint x="60" y="610" as="sourcePoint"/>
                        <mxPoint x="380" y="610" as="targetPoint"/>
                    </mxGeometry>
                </mxCell>
                <mxCell id="ShV8n1ksoIs3ZVw6RkP9-27" value="loop" style="swimlane;whiteSpace=wrap;html=1;fontSize=12;" vertex="1" parent="1">
                    <mxGeometry x="25" y="650" width="400" height="100" as="geometry"/>
                </mxCell>
                <mxCell id="ShV8n1ksoIs3ZVw6RkP9-28" value="" style="endArrow=classic;html=1;fontSize=18;startArrow=none;" edge="1" parent="ShV8n1ksoIs3ZVw6RkP9-27">
                    <mxGeometry width="50" height="50" relative="1" as="geometry">
                        <mxPoint x="360" y="49.519999999999996" as="sourcePoint"/>
                        <mxPoint x="40" y="49.519999999999996" as="targetPoint"/>
                        <Array as="points">
                            <mxPoint x="270" y="49.519999999999996"/>
                        </Array>
                    </mxGeometry>
                </mxCell>
                <mxCell id="ShV8n1ksoIs3ZVw6RkP9-29" value="Invoke totalRiverMiles() to get total length of river tours&amp;nbsp;" style="edgeLabel;html=1;align=center;verticalAlign=middle;resizable=0;points=[];fontSize=12;" vertex="1" connectable="0" parent="ShV8n1ksoIs3ZVw6RkP9-28">
                    <mxGeometry x="0.0214" y="1" relative="1" as="geometry">
                        <mxPoint x="14" y="-11" as="offset"/>
                    </mxGeometry>
                </mxCell>
                <mxCell id="ShV8n1ksoIs3ZVw6RkP9-30" value="Add length of each tour to total, return riverTotal as int" style="endArrow=classic;html=1;fontSize=12;" edge="1" parent="1">
                    <mxGeometry width="50" height="50" relative="1" as="geometry">
                        <mxPoint x="60" y="730" as="sourcePoint"/>
                        <mxPoint x="380" y="730" as="targetPoint"/>
                    </mxGeometry>
                </mxCell>
                <mxCell id="ShV8n1ksoIs3ZVw6RkP9-31" value="loop" style="swimlane;whiteSpace=wrap;html=1;fontSize=12;" vertex="1" parent="1">
                    <mxGeometry x="25" y="770" width="400" height="100" as="geometry"/>
                </mxCell>
                <mxCell id="ShV8n1ksoIs3ZVw6RkP9-32" value="" style="endArrow=classic;html=1;fontSize=18;startArrow=none;" edge="1" parent="ShV8n1ksoIs3ZVw6RkP9-31">
                    <mxGeometry width="50" height="50" relative="1" as="geometry">
                        <mxPoint x="360" y="49.519999999999996" as="sourcePoint"/>
                        <mxPoint x="40" y="49.519999999999996" as="targetPoint"/>
                        <Array as="points">
                            <mxPoint x="270" y="49.519999999999996"/>
                        </Array>
                    </mxGeometry>
                </mxCell>
                <mxCell id="ShV8n1ksoIs3ZVw6RkP9-33" value="Invoke shortestRiver() to get shortest river length" style="edgeLabel;html=1;align=center;verticalAlign=middle;resizable=0;points=[];fontSize=12;" vertex="1" connectable="0" parent="ShV8n1ksoIs3ZVw6RkP9-32">
                    <mxGeometry x="0.0214" y="1" relative="1" as="geometry">
                        <mxPoint x="14" y="-11" as="offset"/>
                    </mxGeometry>
                </mxCell>
                <mxCell id="ShV8n1ksoIs3ZVw6RkP9-34" value="Compare river tour lengths, return shortest as int" style="endArrow=classic;html=1;fontSize=12;" edge="1" parent="1">
                    <mxGeometry width="50" height="50" relative="1" as="geometry">
                        <mxPoint x="60" y="850" as="sourcePoint"/>
                        <mxPoint x="380" y="850" as="targetPoint"/>
                    </mxGeometry>
                </mxCell>
                <mxCell id="ShV8n1ksoIs3ZVw6RkP9-39" value="loop" style="swimlane;whiteSpace=wrap;html=1;fontSize=12;" vertex="1" parent="1">
                    <mxGeometry x="25" y="890" width="400" height="100" as="geometry"/>
                </mxCell>
                <mxCell id="ShV8n1ksoIs3ZVw6RkP9-40" value="" style="endArrow=classic;html=1;fontSize=18;startArrow=none;" edge="1" parent="ShV8n1ksoIs3ZVw6RkP9-39">
                    <mxGeometry width="50" height="50" relative="1" as="geometry">
                        <mxPoint x="360" y="49.519999999999996" as="sourcePoint"/>
                        <mxPoint x="40" y="49.519999999999996" as="targetPoint"/>
                        <Array as="points">
                            <mxPoint x="270" y="49.519999999999996"/>
                        </Array>
                    </mxGeometry>
                </mxCell>
                <mxCell id="ShV8n1ksoIs3ZVw6RkP9-41" value="Invoke longestRiver() to get length of longest river&amp;nbsp;" style="edgeLabel;html=1;align=center;verticalAlign=middle;resizable=0;points=[];fontSize=12;" vertex="1" connectable="0" parent="ShV8n1ksoIs3ZVw6RkP9-40">
                    <mxGeometry x="0.0214" y="1" relative="1" as="geometry">
                        <mxPoint x="14" y="-11" as="offset"/>
                    </mxGeometry>
                </mxCell>
                <mxCell id="ShV8n1ksoIs3ZVw6RkP9-42" value="Compare river lengths, return longest length as int" style="endArrow=classic;html=1;fontSize=12;" edge="1" parent="1">
                    <mxGeometry width="50" height="50" relative="1" as="geometry">
                        <mxPoint x="60" y="970" as="sourcePoint"/>
                        <mxPoint x="380" y="970" as="targetPoint"/>
                    </mxGeometry>
                </mxCell>
                <mxCell id="ShV8n1ksoIs3ZVw6RkP9-43" value="loop" style="swimlane;whiteSpace=wrap;html=1;fontSize=12;" vertex="1" parent="1">
                    <mxGeometry x="25" y="1010" width="400" height="100" as="geometry"/>
                </mxCell>
                <mxCell id="ShV8n1ksoIs3ZVw6RkP9-44" value="" style="endArrow=classic;html=1;fontSize=18;startArrow=none;" edge="1" parent="ShV8n1ksoIs3ZVw6RkP9-43">
                    <mxGeometry width="50" height="50" relative="1" as="geometry">
                        <mxPoint x="360" y="49.519999999999996" as="sourcePoint"/>
                        <mxPoint x="40" y="49.519999999999996" as="targetPoint"/>
                        <Array as="points">
                            <mxPoint x="270" y="49.519999999999996"/>
                        </Array>
                    </mxGeometry>
                </mxCell>
                <mxCell id="ShV8n1ksoIs3ZVw6RkP9-45" value="Invoke cheapTrails() to display the cheapest trails&amp;nbsp;" style="edgeLabel;html=1;align=center;verticalAlign=middle;resizable=0;points=[];fontSize=12;" vertex="1" connectable="0" parent="ShV8n1ksoIs3ZVw6RkP9-44">
                    <mxGeometry x="0.0214" y="1" relative="1" as="geometry">
                        <mxPoint x="14" y="-11" as="offset"/>
                    </mxGeometry>
                </mxCell>
                <mxCell id="ShV8n1ksoIs3ZVw6RkP9-46" value="Log out trail names of price $" style="endArrow=classic;html=1;fontSize=12;" edge="1" parent="1">
                    <mxGeometry width="50" height="50" relative="1" as="geometry">
                        <mxPoint x="60" y="1090" as="sourcePoint"/>
                        <mxPoint x="380" y="1090" as="targetPoint"/>
                    </mxGeometry>
                </mxCell>
                <mxCell id="ShV8n1ksoIs3ZVw6RkP9-47" value="loop" style="swimlane;whiteSpace=wrap;html=1;fontSize=12;" vertex="1" parent="1">
                    <mxGeometry x="25" y="1130" width="400" height="100" as="geometry"/>
                </mxCell>
                <mxCell id="ShV8n1ksoIs3ZVw6RkP9-48" value="" style="endArrow=classic;html=1;fontSize=18;startArrow=none;" edge="1" parent="ShV8n1ksoIs3ZVw6RkP9-47">
                    <mxGeometry width="50" height="50" relative="1" as="geometry">
                        <mxPoint x="360" y="49.519999999999996" as="sourcePoint"/>
                        <mxPoint x="40" y="49.519999999999996" as="targetPoint"/>
                        <Array as="points">
                            <mxPoint x="270" y="49.519999999999996"/>
                        </Array>
                    </mxGeometry>
                </mxCell>
                <mxCell id="ShV8n1ksoIs3ZVw6RkP9-49" value="Invoke expensiveTrails() to display expensive trails" style="edgeLabel;html=1;align=center;verticalAlign=middle;resizable=0;points=[];fontSize=12;" vertex="1" connectable="0" parent="ShV8n1ksoIs3ZVw6RkP9-48">
                    <mxGeometry x="0.0214" y="1" relative="1" as="geometry">
                        <mxPoint x="14" y="-11" as="offset"/>
                    </mxGeometry>
                </mxCell>
                <mxCell id="ShV8n1ksoIs3ZVw6RkP9-50" value="Log out trail names of price $$$$ OR $$$$$" style="endArrow=classic;html=1;fontSize=12;" edge="1" parent="1">
                    <mxGeometry width="50" height="50" relative="1" as="geometry">
                        <mxPoint x="60" y="1210" as="sourcePoint"/>
                        <mxPoint x="380" y="1210" as="targetPoint"/>
                    </mxGeometry>
                </mxCell>
                <mxCell id="ShV8n1ksoIs3ZVw6RkP9-51" value="loop" style="swimlane;whiteSpace=wrap;html=1;fontSize=12;" vertex="1" parent="1">
                    <mxGeometry x="25" y="1370" width="400" height="100" as="geometry"/>
                </mxCell>
                <mxCell id="ShV8n1ksoIs3ZVw6RkP9-52" value="" style="endArrow=classic;html=1;fontSize=18;startArrow=none;" edge="1" parent="ShV8n1ksoIs3ZVw6RkP9-51">
                    <mxGeometry width="50" height="50" relative="1" as="geometry">
                        <mxPoint x="360" y="49.519999999999996" as="sourcePoint"/>
                        <mxPoint x="40" y="49.519999999999996" as="targetPoint"/>
                        <Array as="points">
                            <mxPoint x="270" y="49.519999999999996"/>
                        </Array>
                    </mxGeometry>
                </mxCell>
                <mxCell id="ShV8n1ksoIs3ZVw6RkP9-53" value="Invoke cheapRivers() to display the cheapest rivers&amp;nbsp;" style="edgeLabel;html=1;align=center;verticalAlign=middle;resizable=0;points=[];fontSize=12;" vertex="1" connectable="0" parent="ShV8n1ksoIs3ZVw6RkP9-52">
                    <mxGeometry x="0.0214" y="1" relative="1" as="geometry">
                        <mxPoint x="14" y="-11" as="offset"/>
                    </mxGeometry>
                </mxCell>
                <mxCell id="ShV8n1ksoIs3ZVw6RkP9-54" value="Log out river names of price $" style="endArrow=classic;html=1;fontSize=12;" edge="1" parent="1">
                    <mxGeometry width="50" height="50" relative="1" as="geometry">
                        <mxPoint x="60" y="1450" as="sourcePoint"/>
                        <mxPoint x="380" y="1450" as="targetPoint"/>
                    </mxGeometry>
                </mxCell>
                <mxCell id="ShV8n1ksoIs3ZVw6RkP9-55" value="loop" style="swimlane;whiteSpace=wrap;html=1;fontSize=12;" vertex="1" parent="1">
                    <mxGeometry x="25" y="1490" width="400" height="100" as="geometry"/>
                </mxCell>
                <mxCell id="ShV8n1ksoIs3ZVw6RkP9-56" value="" style="endArrow=classic;html=1;fontSize=18;startArrow=none;" edge="1" parent="ShV8n1ksoIs3ZVw6RkP9-55">
                    <mxGeometry width="50" height="50" relative="1" as="geometry">
                        <mxPoint x="360" y="49.519999999999996" as="sourcePoint"/>
                        <mxPoint x="40" y="49.519999999999996" as="targetPoint"/>
                        <Array as="points">
                            <mxPoint x="270" y="49.519999999999996"/>
                        </Array>
                    </mxGeometry>
                </mxCell>
                <mxCell id="ShV8n1ksoIs3ZVw6RkP9-57" value="Invoke expensiveRivers() to display expensive rivers" style="edgeLabel;html=1;align=center;verticalAlign=middle;resizable=0;points=[];fontSize=12;" vertex="1" connectable="0" parent="ShV8n1ksoIs3ZVw6RkP9-56">
                    <mxGeometry x="0.0214" y="1" relative="1" as="geometry">
                        <mxPoint x="14" y="-11" as="offset"/>
                    </mxGeometry>
                </mxCell>
                <mxCell id="ShV8n1ksoIs3ZVw6RkP9-58" value="Log out river names of price $$$$ OR $$$$$" style="endArrow=classic;html=1;fontSize=12;" edge="1" parent="1">
                    <mxGeometry width="50" height="50" relative="1" as="geometry">
                        <mxPoint x="60" y="1570" as="sourcePoint"/>
                        <mxPoint x="380" y="1570" as="targetPoint"/>
                    </mxGeometry>
                </mxCell>
                <mxCell id="ShV8n1ksoIs3ZVw6RkP9-59" value="loop" style="swimlane;whiteSpace=wrap;html=1;fontSize=12;" vertex="1" parent="1">
                    <mxGeometry x="25" y="1250" width="400" height="100" as="geometry"/>
                </mxCell>
                <mxCell id="ShV8n1ksoIs3ZVw6RkP9-60" value="" style="endArrow=classic;html=1;fontSize=18;startArrow=none;" edge="1" parent="ShV8n1ksoIs3ZVw6RkP9-59">
                    <mxGeometry width="50" height="50" relative="1" as="geometry">
                        <mxPoint x="360" y="49.519999999999996" as="sourcePoint"/>
                        <mxPoint x="40" y="49.519999999999996" as="targetPoint"/>
                        <Array as="points">
                            <mxPoint x="270" y="49.519999999999996"/>
                        </Array>
                    </mxGeometry>
                </mxCell>
                <mxCell id="ShV8n1ksoIs3ZVw6RkP9-61" value="Invoke trailInfo() to display formatted info for each trail&amp;nbsp;" style="edgeLabel;html=1;align=center;verticalAlign=middle;resizable=0;points=[];fontSize=12;" vertex="1" connectable="0" parent="ShV8n1ksoIs3ZVw6RkP9-60">
                    <mxGeometry x="0.0214" y="1" relative="1" as="geometry">
                        <mxPoint x="14" y="-11" as="offset"/>
                    </mxGeometry>
                </mxCell>
                <mxCell id="ShV8n1ksoIs3ZVw6RkP9-62" value="Log out formatted trail info" style="endArrow=classic;html=1;fontSize=12;" edge="1" parent="1">
                    <mxGeometry width="50" height="50" relative="1" as="geometry">
                        <mxPoint x="60" y="1330" as="sourcePoint"/>
                        <mxPoint x="380" y="1330" as="targetPoint"/>
                    </mxGeometry>
                </mxCell>
                <mxCell id="ShV8n1ksoIs3ZVw6RkP9-63" value="loop" style="swimlane;whiteSpace=wrap;html=1;fontSize=12;" vertex="1" parent="1">
                    <mxGeometry x="25" y="1610" width="400" height="100" as="geometry"/>
                </mxCell>
                <mxCell id="ShV8n1ksoIs3ZVw6RkP9-64" value="" style="endArrow=classic;html=1;fontSize=18;startArrow=none;" edge="1" parent="ShV8n1ksoIs3ZVw6RkP9-63">
                    <mxGeometry width="50" height="50" relative="1" as="geometry">
                        <mxPoint x="360" y="49.519999999999996" as="sourcePoint"/>
                        <mxPoint x="40" y="49.519999999999996" as="targetPoint"/>
                        <Array as="points">
                            <mxPoint x="270" y="49.519999999999996"/>
                        </Array>
                    </mxGeometry>
                </mxCell>
                <mxCell id="ShV8n1ksoIs3ZVw6RkP9-65" value="Invoke riverInfo() to display formatted info for each river" style="edgeLabel;html=1;align=center;verticalAlign=middle;resizable=0;points=[];fontSize=12;" vertex="1" connectable="0" parent="ShV8n1ksoIs3ZVw6RkP9-64">
                    <mxGeometry x="0.0214" y="1" relative="1" as="geometry">
                        <mxPoint x="14" y="-11" as="offset"/>
                    </mxGeometry>
                </mxCell>
                <mxCell id="ShV8n1ksoIs3ZVw6RkP9-66" value="Log out river names of price $$$$ &amp;amp; $$$$$" style="endArrow=classic;html=1;fontSize=12;" edge="1" parent="1">
                    <mxGeometry width="50" height="50" relative="1" as="geometry">
                        <mxPoint x="60" y="1690" as="sourcePoint"/>
                        <mxPoint x="380" y="1690" as="targetPoint"/>
                    </mxGeometry>
                </mxCell>
                <mxCell id="ShV8n1ksoIs3ZVw6RkP9-67" value="&lt;font style=&quot;font-size: 18px;&quot;&gt;Log total trail miles message + spacing&lt;/font&gt;" style="shape=callout;whiteSpace=wrap;html=1;perimeter=calloutPerimeter;fontSize=12;position2=0;" vertex="1" parent="1">
                    <mxGeometry x="440" y="290" width="200" height="80" as="geometry"/>
                </mxCell>
                <mxCell id="ShV8n1ksoIs3ZVw6RkP9-68" value="&lt;font style=&quot;font-size: 18px;&quot;&gt;Log shortest trail message + spacing&lt;/font&gt;" style="shape=callout;whiteSpace=wrap;html=1;perimeter=calloutPerimeter;fontSize=12;position2=0;" vertex="1" parent="1">
                    <mxGeometry x="430" y="410" width="200" height="80" as="geometry"/>
                </mxCell>
                <mxCell id="ShV8n1ksoIs3ZVw6RkP9-69" value="&lt;font style=&quot;font-size: 18px;&quot;&gt;Log longest trail message + spacing&lt;/font&gt;" style="shape=callout;whiteSpace=wrap;html=1;perimeter=calloutPerimeter;fontSize=12;position2=0;" vertex="1" parent="1">
                    <mxGeometry x="430" y="530" width="200" height="80" as="geometry"/>
                </mxCell>
                <mxCell id="ShV8n1ksoIs3ZVw6RkP9-70" value="&lt;font style=&quot;font-size: 18px;&quot;&gt;Log total river miles message + spacing&lt;/font&gt;" style="shape=callout;whiteSpace=wrap;html=1;perimeter=calloutPerimeter;fontSize=12;position2=0;" vertex="1" parent="1">
                    <mxGeometry x="430" y="650" width="200" height="80" as="geometry"/>
                </mxCell>
                <mxCell id="ShV8n1ksoIs3ZVw6RkP9-71" value="&lt;font style=&quot;font-size: 18px;&quot;&gt;Log shortest river message + spacing&lt;/font&gt;" style="shape=callout;whiteSpace=wrap;html=1;perimeter=calloutPerimeter;fontSize=12;position2=0;" vertex="1" parent="1">
                    <mxGeometry x="430" y="770" width="200" height="80" as="geometry"/>
                </mxCell>
                <mxCell id="ShV8n1ksoIs3ZVw6RkP9-72" value="&lt;font style=&quot;font-size: 18px;&quot;&gt;Log longest river message + spacing&lt;/font&gt;" style="shape=callout;whiteSpace=wrap;html=1;perimeter=calloutPerimeter;fontSize=12;position2=0;" vertex="1" parent="1">
                    <mxGeometry x="430" y="890" width="200" height="80" as="geometry"/>
                </mxCell>
                <mxCell id="ShV8n1ksoIs3ZVw6RkP9-73" value="&lt;font style=&quot;font-size: 18px;&quot;&gt;Log list of cheapest trails + spacing&lt;/font&gt;" style="shape=callout;whiteSpace=wrap;html=1;perimeter=calloutPerimeter;fontSize=12;position2=0;" vertex="1" parent="1">
                    <mxGeometry x="430" y="1010" width="200" height="80" as="geometry"/>
                </mxCell>
                <mxCell id="ShV8n1ksoIs3ZVw6RkP9-74" value="&lt;font style=&quot;font-size: 18px;&quot;&gt;Log list of expensive trails + spacing&lt;/font&gt;" style="shape=callout;whiteSpace=wrap;html=1;perimeter=calloutPerimeter;fontSize=12;position2=0;" vertex="1" parent="1">
                    <mxGeometry x="430" y="1130" width="200" height="80" as="geometry"/>
                </mxCell>
                <mxCell id="ShV8n1ksoIs3ZVw6RkP9-75" value="&lt;font style=&quot;font-size: 18px;&quot;&gt;Log list of cheapest rivers + spacing&lt;/font&gt;" style="shape=callout;whiteSpace=wrap;html=1;perimeter=calloutPerimeter;fontSize=12;position2=0;" vertex="1" parent="1">
                    <mxGeometry x="430" y="1370" width="200" height="80" as="geometry"/>
                </mxCell>
                <mxCell id="ShV8n1ksoIs3ZVw6RkP9-76" value="&lt;font style=&quot;font-size: 18px;&quot;&gt;Log list of expensive rivers + spacing&lt;/font&gt;" style="shape=callout;whiteSpace=wrap;html=1;perimeter=calloutPerimeter;fontSize=12;position2=0;" vertex="1" parent="1">
                    <mxGeometry x="430" y="1490" width="200" height="80" as="geometry"/>
                </mxCell>
                <mxCell id="ShV8n1ksoIs3ZVw6RkP9-77" value="&lt;font style=&quot;font-size: 18px;&quot;&gt;Log formatted trail info&lt;/font&gt;" style="shape=callout;whiteSpace=wrap;html=1;perimeter=calloutPerimeter;fontSize=12;position2=0;" vertex="1" parent="1">
                    <mxGeometry x="430" y="1250" width="200" height="80" as="geometry"/>
                </mxCell>
                <mxCell id="ShV8n1ksoIs3ZVw6RkP9-78" value="&lt;font style=&quot;font-size: 18px;&quot;&gt;Log formatted river info&lt;/font&gt;" style="shape=callout;whiteSpace=wrap;html=1;perimeter=calloutPerimeter;fontSize=12;position2=0;" vertex="1" parent="1">
                    <mxGeometry x="430" y="1610" width="200" height="80" as="geometry"/>
                </mxCell>
            </root>
        </mxGraphModel>
    </diagram>
</mxfile>